<svg width="24" height="24" viewBox="0 0 24 24" fill="none" xmlns="http://www.w3.org/2000/svg">
<path d="M2.99997 13H3.99997V20C3.99997 21.103 4.89697 22 5.99997 22H18C19.103 22 20 21.103 20 20V13H21C21.1977 13 21.391 12.9413 21.5554 12.8314C21.7198 12.7215 21.848 12.5654 21.9236 12.3827C21.9993 12.2 22.0191 11.9989 21.9806 11.805C21.942 11.611 21.8468 11.4329 21.707 11.293L12.707 2.293C12.6142 2.20005 12.504 2.12632 12.3827 2.07601C12.2613 2.02569 12.1313 1.9998 12 1.9998C11.8686 1.9998 11.7386 2.02569 11.6173 2.07601C11.496 2.12632 11.3858 2.20005 11.293 2.293L2.29297 11.293C2.15316 11.4329 2.05795 11.611 2.01939 11.805C1.98082 11.9989 2.00062 12.2 2.07629 12.3827C2.15196 12.5654 2.2801 12.7215 2.44451 12.8314C2.60892 12.9413 2.80222 13 2.99997 13ZM12 4.414L18 10.414V15L18.001 20H5.99997V10.414L12 4.414Z" fill="#98A2B3"/>
<path d="M12 18C15.703 18 16.901 14.461 16.95 14.311L15.05 13.69C15.042 13.713 14.269 16 12 16C9.76199 16 8.97999 13.779 8.94899 13.684L7.04999 14.311C7.09899 14.461 8.29699 18 12 18Z" fill="#98A2B3"/>
</svg>
