<svg width="24" height="24" viewBox="0 0 24 24" fill="none" xmlns="http://www.w3.org/2000/svg">
<path d="M19.7083 20H4.29172C3.02753 20 2 18.9725 2 17.7083V7.29172C2 6.02753 3.02753 5 4.29172 5H19.7083C20.9725 5 22 6.02753 22 7.29172V17.7083C22 18.9725 20.9725 20 19.7083 20ZM4.29172 6.25C3.71753 6.25 3.25 6.71753 3.25 7.29172V17.7083C3.25 18.2825 3.71753 18.75 4.29172 18.75H19.7083C20.2825 18.75 20.75 18.2825 20.75 17.7083V7.29172C20.75 6.71753 20.2825 6.25 19.7083 6.25H4.29172Z" fill="#98A2B3"/>
<path d="M8.24997 12.5C7.10159 12.5 6.16669 11.5649 6.16669 10.4167C6.16669 9.26833 7.10159 8.33327 8.24997 8.33327C9.39835 8.33327 10.3333 9.26833 10.3333 10.4167C10.3333 11.5649 9.39835 12.5 8.24997 12.5ZM8.24997 9.58327C7.79083 9.58327 7.41669 9.95742 7.41669 10.4167C7.41669 10.8758 7.79083 11.25 8.24997 11.25C8.70911 11.25 9.08325 10.8758 9.08325 10.4167C9.08325 9.95742 8.70911 9.58327 8.24997 9.58327Z" fill="#98A2B3"/>
<path d="M11.375 16.6667C11.03 16.6667 10.75 16.3867 10.75 16.0417V15.625C10.75 15.0508 10.2825 14.5833 9.70828 14.5833H6.79172C6.21753 14.5833 5.75 15.0508 5.75 15.625V16.0417C5.75 16.3867 5.47 16.6667 5.125 16.6667C4.78 16.6667 4.5 16.3867 4.5 16.0417V15.625C4.5 14.3608 5.52753 13.3333 6.79172 13.3333H9.70828C10.9725 13.3333 12 14.3608 12 15.625V16.0417C12 16.3867 11.72 16.6667 11.375 16.6667Z" fill="#98A2B3"/>
<path d="M18.875 10H14.2917C13.9467 10 13.6667 9.72 13.6667 9.375C13.6667 9.03 13.9467 8.75 14.2917 8.75H18.875C19.22 8.75 19.5 9.03 19.5 9.375C19.5 9.72 19.22 10 18.875 10Z" fill="#98A2B3"/>
<path d="M18.875 13.3333H14.2917C13.9467 13.3333 13.6667 13.0533 13.6667 12.7083C13.6667 12.3633 13.9467 12.0833 14.2917 12.0833H18.875C19.22 12.0833 19.5 12.3633 19.5 12.7083C19.5 13.0533 19.22 13.3333 18.875 13.3333Z" fill="#98A2B3"/>
<path d="M18.875 16.6667H14.2917C13.9467 16.6667 13.6667 16.3867 13.6667 16.0417C13.6667 15.6967 13.9467 15.4167 14.2917 15.4167H18.875C19.22 15.4167 19.5 15.6967 19.5 16.0417C19.5 16.3867 19.22 16.6667 18.875 16.6667Z" fill="#98A2B3"/>
</svg>
