<svg width="22" height="22" viewBox="0 0 22 22" fill="none" xmlns="http://www.w3.org/2000/svg">
<path d="M20.6566 14.4586C19.2757 19.356 14.1115 22.3261 8.95501 21.2966C8.7753 21.2621 8.59442 21.2215 8.41237 21.1753C8.0951 21.0947 7.78485 20.999 7.48339 20.8939C7.15265 20.776 6.83304 20.6414 6.52279 20.4945C5.83733 20.168 5.20044 19.7731 4.62502 19.3176C4.48219 19.2053 4.34287 19.0912 4.20824 18.97C3.97585 18.7675 3.75458 18.5539 3.54794 18.3326C1.37797 16.0243 0.436693 12.7555 1.34343 9.54176C2.72432 4.64437 7.88847 1.67424 13.045 2.70322C13.2247 2.7377 13.4056 2.7783 13.5876 2.82447C13.7117 2.85617 13.8352 2.8901 13.9552 2.92625C14.1332 2.97743 14.3094 3.03305 14.4815 3.09423C15.205 3.34897 15.8811 3.67824 16.5045 4.06759C16.7984 4.25225 17.08 4.45026 17.3492 4.65939C17.7461 4.97142 18.1131 5.30626 18.4515 5.66779C20.622 7.97604 21.5633 11.2449 20.6566 14.4586Z" fill="#FA8A00"/>
<path d="M20.6566 13.4586C19.2757 18.356 14.1115 21.3261 8.95501 20.2966C8.7753 20.2621 8.59442 20.2215 8.41237 20.1753C8.0951 20.0947 7.78485 19.999 7.48339 19.8939C7.15265 19.776 6.83304 19.6414 6.52279 19.4945C5.83733 19.168 5.20044 18.7731 4.62502 18.3176C4.48219 18.2053 4.34287 18.0912 4.20824 17.97C3.97585 17.7675 3.75458 17.5539 3.54794 17.3326C1.37797 15.0243 0.436693 11.7555 1.34343 8.54176C2.72432 3.64437 7.88847 0.674238 13.045 1.70322C13.2247 1.7377 13.4056 1.7783 13.5876 1.82447C13.7117 1.85617 13.8352 1.8901 13.9552 1.92625C14.1332 1.97743 14.3094 2.03305 14.4815 2.09423C15.205 2.34897 15.8811 2.67824 16.5045 3.06759C16.7984 3.25225 17.08 3.45026 17.3492 3.65939C17.7461 3.97142 18.1131 4.30626 18.4515 4.66779C20.622 6.97604 21.5633 10.2449 20.6566 13.4586Z" fill="#FFCA00"/>
<path d="M16.5 16.4569C19.5376 13.5193 19.5376 8.75657 16.5 5.81897C13.4624 2.88138 8.53757 2.88138 5.5 5.81897C2.46243 8.75657 2.46243 13.5193 5.5 16.4569C8.53757 19.3945 13.4624 19.3945 16.5 16.4569Z" fill="#FA8A00"/>
<path d="M18.4316 13.3785C19.4984 9.528 16.9995 5.53498 12.8502 4.45982C8.70088 3.38465 4.47239 5.63448 3.4056 9.48495C2.3388 13.3354 4.83769 17.3284 8.98701 18.4036C13.1363 19.4788 17.3648 17.2289 18.4316 13.3785Z" fill="#FFE700"/>
<path d="M18.5127 13.0849C19.5731 9.2575 17.0691 5.28321 12.9197 4.20805C8.77042 3.13289 4.54711 5.36398 3.48672 9.19135C2.42633 13.0187 4.9304 16.993 9.07972 18.0682C13.229 19.1433 17.4523 16.9122 18.5127 13.0849Z" fill="#FF9F00"/>
<path d="M8.50261 12.6937H6.01358L5.61458 13.8438H3.91406L6.32709 7.33258H8.20811L10.6211 13.8438H8.90161L8.50261 12.6937ZM8.08461 11.4693L7.2581 9.0856L6.44109 11.4693H8.08461Z" fill="#FA8A00"/>
<path d="M15.4406 13.8438L14.0821 11.8496L12.885 13.8438H11.042L13.1796 10.5325L10.9945 7.33258H12.885L14.2246 9.29893L15.4026 7.33258H17.2456L15.1271 10.616L17.3311 13.8438H15.4406Z" fill="#FA8A00"/>
<path d="M8.66216 12.6937H6.17313L5.77413 13.8438H4.07361L6.48663 7.33258H8.36765L10.7807 13.8438H9.06116L8.66216 12.6937ZM8.24415 11.4693L7.41764 9.0856L6.60063 11.4693H8.24415Z" fill="#FFCA00"/>
<path d="M15.6001 13.8438L14.2416 11.8496L13.0446 13.8438H11.2016L13.3391 10.5325L11.1541 7.33258H13.0446L14.3841 9.29893L15.5621 7.33258H17.4051L15.2866 10.616L17.4906 13.8438H15.6001Z" fill="#FFCA00"/>
</svg>
