<svg width="23" height="27" viewBox="0 0 23 27" fill="none" xmlns="http://www.w3.org/2000/svg">
<path d="M0.833374 9.41851C0.833374 8.08109 1.50178 6.83217 2.61457 6.0903L9.28124 0.833323C10.6248 -0.0624088 12.3752 -0.0624085 13.7188 0.833323L20.3855 6.0903C21.4983 6.83217 22.1667 8.08109 22.1667 9.4185V17.5C22.1667 19.7091 20.3758 21.5 18.1667 21.5H4.83337C2.62424 21.5 0.833374 19.7091 0.833374 17.5V9.41851Z" fill="#D0D5DD"/>
<path fill-rule="evenodd" clip-rule="evenodd" d="M2.16671 24.1667C1.43033 24.1667 0.833374 24.7636 0.833374 25.5C0.833374 26.2364 1.43033 26.8333 2.16671 26.8333H20.8334C21.5698 26.8333 22.1667 26.2364 22.1667 25.5C22.1667 24.7636 21.5698 24.1667 20.8334 24.1667H2.16671Z" fill="#98A2B3"/>
<path d="M7.49994 17.5C7.49994 15.2909 9.2908 13.5 11.4999 13.5C13.7091 13.5 15.4999 15.2909 15.4999 17.5V21.5H7.49994V17.5Z" fill="white"/>
<path fill-rule="evenodd" clip-rule="evenodd" d="M14.1666 20.1667V17.5C14.1666 16.0272 12.9727 14.8333 11.4999 14.8333C10.0272 14.8333 8.83327 16.0272 8.83327 17.5V20.1667H14.1666ZM11.4999 13.5C9.2908 13.5 7.49994 15.2909 7.49994 17.5V21.5H15.4999V17.5C15.4999 15.2909 13.7091 13.5 11.4999 13.5Z" fill="#98A2B3"/>
<path d="M14.8332 7.49999C14.8332 9.34094 13.3408 10.8333 11.4999 10.8333C9.65895 10.8333 8.16656 9.34094 8.16656 7.49999C8.16656 5.65904 9.65895 4.16666 11.4999 4.16666C13.3408 4.16666 14.8332 5.65904 14.8332 7.49999Z" fill="white"/>
<path fill-rule="evenodd" clip-rule="evenodd" d="M11.4999 9.49999C12.6045 9.49999 13.4999 8.60456 13.4999 7.49999C13.4999 6.39542 12.6045 5.49999 11.4999 5.49999C10.3953 5.49999 9.4999 6.39542 9.4999 7.49999C9.4999 8.60456 10.3953 9.49999 11.4999 9.49999ZM11.4999 10.8333C13.3408 10.8333 14.8332 9.34094 14.8332 7.49999C14.8332 5.65904 13.3408 4.16666 11.4999 4.16666C9.65895 4.16666 8.16656 5.65904 8.16656 7.49999C8.16656 9.34094 9.65895 10.8333 11.4999 10.8333Z" fill="#98A2B3"/>
<path fill-rule="evenodd" clip-rule="evenodd" d="M12.4023 7.06906L11.638 7.83336H10.8333V7.16669H11.3618L11.9309 6.59766L12.4023 7.06906Z" fill="#98A2B3"/>
</svg>
