<svg width="22" height="27" viewBox="0 0 22 27" fill="none" xmlns="http://www.w3.org/2000/svg">
<path d="M0.333313 22.8956C0.333313 21.2541 1.35152 19.7849 2.88846 19.2085L8.19099 17.2201C10.0021 16.5409 11.9979 16.5409 13.809 17.2201L19.1115 19.2085C20.6484 19.7849 21.6666 21.2541 21.6666 22.8956C21.6666 25.0704 19.9036 26.8334 17.7288 26.8334H4.27111C2.09633 26.8334 0.333313 25.0704 0.333313 22.8956Z" fill="#E52138"/>
<path d="M17.6666 6.83332C17.6666 10.5152 14.6819 13.5 11 13.5C7.31808 13.5 4.33331 10.5152 4.33331 6.83332C4.33331 3.15142 7.31808 0.166656 11 0.166656C14.6819 0.166656 17.6666 3.15142 17.6666 6.83332Z" fill="#F2F2F2"/>
<path fill-rule="evenodd" clip-rule="evenodd" d="M11 12.1667C13.9455 12.1667 16.3333 9.77884 16.3333 6.83332C16.3333 3.8878 13.9455 1.49999 11 1.49999C8.05446 1.49999 5.66665 3.8878 5.66665 6.83332C5.66665 9.77884 8.05446 12.1667 11 12.1667ZM11 13.5C14.6819 13.5 17.6666 10.5152 17.6666 6.83332C17.6666 3.15142 14.6819 0.166656 11 0.166656C7.31808 0.166656 4.33331 3.15142 4.33331 6.83332C4.33331 10.5152 7.31808 13.5 11 13.5Z" fill="#912018"/>
</svg>
