<svg width="32" height="33" viewBox="0 0 32 33" fill="none" xmlns="http://www.w3.org/2000/svg">
<path d="M5.33331 8.29486C5.33331 5.46263 7.6548 3.16666 10.5185 3.16666H18.8148C21.6785 3.16666 24 5.46263 24 8.29486V24.7051C24 27.5373 21.6785 29.8333 18.8148 29.8333H10.5185C7.6548 29.8333 5.33331 27.5373 5.33331 24.7051V8.29486Z" fill="#98A2B3"/>
<path d="M7.40741 8.29485C7.40741 6.59551 8.8003 5.21793 10.5185 5.21793H18.8148C20.533 5.21793 21.9259 6.59551 21.9259 8.29485V24.7051C21.9259 26.4044 20.533 27.782 18.8148 27.782H10.5185C8.8003 27.782 7.40741 26.4044 7.40741 24.7051V8.29485Z" fill="white"/>
<path d="M10.5185 5.21793H18.8148C18.8148 6.35082 17.8862 7.26921 16.7407 7.26921H12.5926C11.4471 7.26921 10.5185 6.35082 10.5185 5.21793Z" fill="#98A2B3"/>
<rect x="10" y="9.5" width="9" height="3" rx="1.5" fill="#667085"/>
<path d="M11.9085 11.7C11.7759 11.7 11.6553 11.6651 11.5467 11.5952C11.4393 11.5239 11.3547 11.4269 11.2928 11.3043C11.231 11.1816 11.2 11.0469 11.2 10.9C11.2 10.7531 11.231 10.6184 11.2928 10.4957C11.3547 10.3731 11.4393 10.2768 11.5467 10.207C11.6553 10.1357 11.7759 10.1 11.9085 10.1C12.041 10.1 12.161 10.1357 12.2684 10.207C12.377 10.2768 12.4622 10.3731 12.5241 10.4957C12.586 10.6184 12.6169 10.7531 12.6169 10.9C12.6169 11.0469 12.586 11.1816 12.5241 11.3043C12.4622 11.4269 12.377 11.5239 12.2684 11.5952C12.161 11.6651 12.041 11.7 11.9085 11.7ZM11.9085 11.4262C11.9918 11.4262 12.0682 11.4041 12.1377 11.3599C12.2071 11.3157 12.2614 11.2537 12.3006 11.1738C12.341 11.0939 12.3612 11.0027 12.3612 10.9C12.3612 10.7973 12.341 10.7061 12.3006 10.6262C12.2614 10.5464 12.2071 10.4843 12.1377 10.4401C12.0682 10.3959 11.9918 10.3738 11.9085 10.3738C11.8251 10.3738 11.7487 10.3959 11.6793 10.4401C11.6111 10.4843 11.5568 10.5464 11.5163 10.6262C11.4772 10.7061 11.4576 10.7973 11.4576 10.9C11.4576 11.0027 11.4772 11.0939 11.5163 11.1738C11.5568 11.2537 11.6111 11.3157 11.6793 11.3599C11.7487 11.4041 11.8251 11.4262 11.9085 11.4262Z" fill="white"/>
<path d="M12.8591 10.1342H13.3535C13.4418 10.1342 13.5201 10.1549 13.5883 10.1963C13.6578 10.2376 13.7115 10.2954 13.7493 10.3695C13.7872 10.4423 13.8062 10.525 13.8062 10.6177C13.8062 10.716 13.7784 10.8037 13.7228 10.8808C13.6685 10.9563 13.5997 11.0112 13.5164 11.0455L13.5145 11.0604L13.8782 11.6487V11.6658H13.5845L13.2341 11.0904H13.1148V11.6658H12.8591V10.1342ZM13.3516 10.8251C13.4096 10.8251 13.457 10.8052 13.4936 10.7652C13.5302 10.7253 13.5486 10.6747 13.5486 10.6134C13.5486 10.5549 13.5309 10.505 13.4955 10.4636C13.4614 10.4223 13.4147 10.4016 13.3553 10.4016H13.1148V10.8251H13.3516Z" fill="white"/>
<path d="M14.0596 10.1342H14.518C14.6594 10.1342 14.7826 10.1663 14.8874 10.2305C14.9922 10.2947 15.073 10.3845 15.1298 10.5C15.1867 10.6155 15.2151 10.7488 15.2151 10.9C15.2151 11.0512 15.1867 11.1845 15.1298 11.3C15.073 11.4155 14.9922 11.5054 14.8874 11.5695C14.7826 11.6337 14.6594 11.6658 14.518 11.6658H14.0596V10.1342ZM14.5066 11.392C14.6531 11.392 14.7649 11.3485 14.8419 11.2615C14.9189 11.1731 14.9575 11.0526 14.9575 10.9C14.9575 10.7474 14.9189 10.6276 14.8419 10.5406C14.7649 10.4522 14.6531 10.408 14.5066 10.408H14.3153V11.392H14.5066Z" fill="white"/>
<path d="M15.4581 10.1342H16.3181V10.408H15.7138V10.7631H16.2574V11.0369H15.7138V11.392H16.3181V11.6658H15.4581V10.1342Z" fill="white"/>
<path d="M16.5809 10.1342H17.0753C17.1637 10.1342 17.242 10.1549 17.3102 10.1963C17.3797 10.2376 17.4333 10.2954 17.4712 10.3695C17.5091 10.4423 17.528 10.525 17.528 10.6177C17.528 10.716 17.5003 10.8037 17.4447 10.8808C17.3904 10.9563 17.3216 11.0112 17.2382 11.0455L17.2363 11.0604L17.6 11.6487V11.6658H17.3064L16.956 11.0904H16.8366V11.6658H16.5809V10.1342ZM17.0734 10.8251C17.1315 10.8251 17.1789 10.8052 17.2155 10.7652C17.2521 10.7253 17.2704 10.6747 17.2704 10.6134C17.2704 10.5549 17.2527 10.505 17.2174 10.4636C17.1833 10.4223 17.1366 10.4016 17.0772 10.4016H16.8366V10.8251H17.0734Z" fill="white"/>
<path d="M16.5363 18.2735C16.5773 17.8351 16.9453 17.5 17.3856 17.5H23H28.6144C29.0547 17.5 29.4227 17.8351 29.4637 18.2735C29.8205 22.0828 29.8205 25.9172 29.4637 29.7265C29.4227 30.1649 29.0547 30.5 28.6144 30.5H23H17.3856C16.9453 30.5 16.5773 30.1649 16.5363 29.7265C16.1795 25.9172 16.1795 22.0828 16.5363 18.2735Z" fill="#98A2B3"/>
<path fill-rule="evenodd" clip-rule="evenodd" d="M24.5333 17.1857H21.4857V19.8523V20.2333H21.4857L21.4857 20.6142L21.8665 20.2334L22.2474 20.6142L22.6283 20.2333H22.6286L23.0095 20.6142L23.3904 20.2334L23.7712 20.6142L24.1522 20.2333H24.1525L24.5334 20.6142V20.2333V19.8523L24.5333 19.8524V17.1857Z" fill="white"/>
</svg>
