<svg width="32" height="33" viewBox="0 0 32 33" fill="none" xmlns="http://www.w3.org/2000/svg">
<path fill-rule="evenodd" clip-rule="evenodd" d="M6.4 8.49999C5.95817 8.49999 5.6 8.85817 5.6 9.29999V23.7H4V9.29999C4 7.97451 5.07452 6.89999 6.4 6.89999H8V8.49999H6.4ZM24.8 11.7H21.6V10.1H24.8C26.1255 10.1 27.2 11.1745 27.2 12.5V20.5H25.6V12.5C25.6 12.0582 25.2418 11.7 24.8 11.7Z" fill="#98A2B3"/>
<path fill-rule="evenodd" clip-rule="evenodd" d="M5.79912 14.1C5.68915 14.1 5.6 14.1891 5.6 14.2991V24.5C5.6 26.2673 7.03269 27.7 8.8 27.7H24V29.3H8.8C6.14903 29.3 4 27.151 4 24.5V14.2991C4 13.3055 4.80549 12.5 5.79912 12.5H11.9508C13.2871 12.5 14.452 13.4095 14.7761 14.706C14.9222 15.2902 15.4471 15.7 16.0492 15.7H25.0376C26.2318 15.7 27.2 16.6682 27.2 17.8624V20.1H25.6V17.8624C25.6 17.5518 25.3482 17.3 25.0376 17.3H16.0492C14.7129 17.3 13.548 16.3905 13.2239 15.094C13.0778 14.5098 12.5529 14.1 11.9508 14.1H5.79912Z" fill="#98A2B3"/>
<path fill-rule="evenodd" clip-rule="evenodd" d="M7.20001 6.10001C7.20001 4.77453 8.27453 3.70001 9.60001 3.70001H20C21.3255 3.70001 22.4 4.77453 22.4 6.10001V15.6826C22.4 16.5759 21.6759 17.3 20.7826 17.3H16.0493C14.7129 17.3 13.548 16.3905 13.2239 15.094C13.0778 14.5098 12.5529 14.1 11.9508 14.1H8.63581C7.84284 14.1 7.20001 13.4572 7.20001 12.6642V6.10001ZM9.60001 5.30001C9.15818 5.30001 8.80001 5.65818 8.80001 6.10001V12.5H11.9508C13.2871 12.5 14.452 13.4095 14.7761 14.706C14.9222 15.2902 15.4471 15.7 16.0493 15.7H20.7826C20.7864 15.7 20.7881 15.6994 20.7891 15.699C20.7906 15.6983 20.7927 15.6971 20.7949 15.6949C20.7971 15.6927 20.7983 15.6906 20.799 15.6891C20.7994 15.6881 20.8 15.6864 20.8 15.6826V6.10001C20.8 5.65818 20.4418 5.30001 20 5.30001H9.60001Z" fill="#98A2B3"/>
<path fill-rule="evenodd" clip-rule="evenodd" d="M10.4 7.69999C10.4 7.25817 10.7582 6.89999 11.2 6.89999H15.2C15.6419 6.89999 16 7.25817 16 7.69999C16 8.14182 15.6419 8.49999 15.2 8.49999H11.2C10.7582 8.49999 10.4 8.14182 10.4 7.69999Z" fill="#98A2B3"/>
<path fill-rule="evenodd" clip-rule="evenodd" d="M10.4 10.9C10.4 10.4582 10.7582 10.1 11.2 10.1H18.4C18.8419 10.1 19.2 10.4582 19.2 10.9C19.2 11.3418 18.8419 11.7 18.4 11.7H11.2C10.7582 11.7 10.4 11.3418 10.4 10.9Z" fill="#98A2B3"/>
<path fill-rule="evenodd" clip-rule="evenodd" d="M23.2 19.7C20.9908 19.7 19.2 21.4909 19.2 23.7C19.2 25.9091 20.9908 27.7 23.2 27.7C25.4091 27.7 27.2 25.9091 27.2 23.7C27.2 21.4909 25.4091 19.7 23.2 19.7ZM17.6 23.7C17.6 20.6072 20.1072 18.1 23.2 18.1C26.2928 18.1 28.8 20.6072 28.8 23.7C28.8 26.7928 26.2928 29.3 23.2 29.3C20.1072 29.3 17.6 26.7928 17.6 23.7Z" fill="#98A2B3"/>
<path fill-rule="evenodd" clip-rule="evenodd" d="M24 22.5C24.2209 22.5 24.4 22.6791 24.4 22.9V26.1C24.4 26.3209 24.2209 26.5 24 26.5C23.7791 26.5 23.6 26.3209 23.6 26.1V22.9C23.6 22.6791 23.7791 22.5 24 22.5Z" fill="#98A2B3"/>
<path fill-rule="evenodd" clip-rule="evenodd" d="M20.8 21.3C21.0209 21.3 21.2 21.4791 21.2 21.7V24.9C21.2 25.1209 21.0209 25.3 20.8 25.3C20.5791 25.3 20.4 25.1209 20.4 24.9V21.7C20.4 21.4791 20.5791 21.3 20.8 21.3Z" fill="#98A2B3"/>
<path fill-rule="evenodd" clip-rule="evenodd" d="M21.7781 23.3672C21.9619 23.2446 22.2103 23.2943 22.3328 23.4781L23.1328 24.6781C23.2554 24.8619 23.2057 25.1103 23.0219 25.2328C22.8381 25.3554 22.5897 25.3057 22.4672 25.1219L21.6672 23.9219C21.5447 23.7381 21.5943 23.4897 21.7781 23.3672Z" fill="#98A2B3"/>
<path fill-rule="evenodd" clip-rule="evenodd" d="M23.6 22.9C23.6 22.6791 23.7791 22.5 24 22.5H25C25.7732 22.5 26.4 23.1268 26.4 23.9C26.4 24.6732 25.7732 25.3 25 25.3H24C23.7791 25.3 23.6 25.1209 23.6 24.9C23.6 24.6791 23.7791 24.5 24 24.5H25C25.3313 24.5 25.6 24.2314 25.6 23.9C25.6 23.5686 25.3313 23.3 25 23.3H24C23.7791 23.3 23.6 23.1209 23.6 22.9Z" fill="#98A2B3"/>
<path fill-rule="evenodd" clip-rule="evenodd" d="M20.4 21.7C20.4 21.4791 20.5791 21.3 20.8 21.3H21.8C22.5732 21.3 23.2 21.9268 23.2 22.7C23.2 23.4732 22.5732 24.1 21.8 24.1H20.8C20.5791 24.1 20.4 23.9209 20.4 23.7C20.4 23.4791 20.5791 23.3 20.8 23.3H21.8C22.1314 23.3 22.4 23.0314 22.4 22.7C22.4 22.3686 22.1314 22.1 21.8 22.1H20.8C20.5791 22.1 20.4 21.9209 20.4 21.7Z" fill="#98A2B3"/>
</svg>
